# xmcd CD database file
#
# Track frame offsets:
#	183
#	11983
#	29200
#	40200
#	54445
#	67928
#	78425
#	90645
#	102598
#	114575
#	131010
#	143890
#	155295
#	167348
#	179118
#	189460
#
# Disc length: 2742 seconds
#
# Revision: 6
# Processed by: cddbd v1.5.2PL0 Copyright (c) Steve Scherf et al.
# Submitted via: jetAudio 7
#
DISCID=de0ab410
DTITLE=Various Artist - Country and Western Festival Disc 1
DYEAR=1900
DGENRE=Country
TTITLE0=Six Days On The Road
TTITLE1=Darby's Castle
TTITLE2=The Wings Of A Dove
TTITLE3=Dan D. Derby
TTITLE4=Green, Green Grass Of Home
TTITLE5=Bonjour, Tristesse
TTITLE6=I Need A Friend
TTITLE7=Fireball Rolled A Seven
TTITLE8=Papa And Mama
TTITLE9=Mary Ann Regrets
TTITLE10=Salvation Arms
TTITLE11=I'll Hold Your Closer Than Love
TTITLE12=Hittin' The Bottle Missing You
TTITLE13=Money Greases The Wheels
TTITLE14=Jack Knife
TTITLE15=The Waitress At Mainstreet Café
EXTD=
EXTT0=
EXTT1=
EXTT2=
EXTT3=
EXTT4=
EXTT5=
EXTT6=
EXTT7=
EXTT8=
EXTT9=
EXTT10=
EXTT11=
EXTT12=
EXTT13=
EXTT14=
EXTT15=
PLAYORDER=
